{
  "accessors": [
    {
      "bufferView": 1,
      "componentType": 5126,
      "count": 1596,
      "max": [
        1.2233699560165405,
        9.0037698745727539,
        1.1891200542449951
      ],
      "min": [
        -1.8713099956512451,
        -11.999190330505371,
        -1.1891200542449951
      ],
      "type": "VEC3"
    },
    {
      "bufferView": 1,
      "byteOffset": 19152,
      "componentType": 5126,
      "count": 1596,
      "max": [
        1,
        0.98988610506057739,
        0.99998438358306885
      ],
      "min": [
        -0.99688678979873657,
        -0.73180884122848511,
        -0.99998438358306885
      ],
      "type": "VEC3"
    },
    {
      "bufferView": 0,
      "componentType": 5125,
      "count": 2310,
      "max": [
        1595
      ],
      "min": [
        0
      ],
      "type": "SCALAR"
    },
    {
      "bufferView": 1,
      "byteOffset": 38304,
      "componentType": 5126,
      "count": 18,
      "max": [
        0.15821999311447144,
        -12.554329872131348,
        0.3043999969959259
      ],
      "min": [
        -0.10249000042676926,
        -13.049139976501465,
        -0.3043999969959259
      ],
      "type": "VEC3"
    },
    {
      "bufferView": 1,
      "byteOffset": 38520,
      "componentType": 5126,
      "count": 18,
      "max": [
        0.85231053829193115,
        -0.29938018321990967,
        0.55293941497802734
      ],
      "min": [
        -0.89262872934341431,
        -0.41115939617156982,
        -0.55293941497802734
      ],
      "type": "VEC3"
    },
    {
      "bufferView": 0,
      "byteOffset": 9240,
      "componentType": 5125,
      "count": 18,
      "max": [
        17
      ],
      "min": [
        0
      ],
      "type": "SCALAR"
    },
    {
      "bufferView": 1,
      "byteOffset": 38736,
      "componentType": 5126,
      "count": 64,
      "max": [
        0.24513000249862671,
        -10.314410209655762,
        0.65494000911712646
      ],
      "min": [
        -0.42403000593185425,
        -12.860469818115234,
        -0.65494000911712646
      ],
      "type": "VEC3"
    },
    {
      "bufferView": 1,
      "byteOffset": 39504,
      "componentType": 5126,
      "count": 64,
      "max": [
        0.9985954761505127,
        0.038919825106859207,
        0.9651140570640564
      ],
      "min": [
        -0.9242018461227417,
        -0.36898073554039001,
        -0.9651140570640564
      ],
      "type": "VEC3"
    },
    {
      "bufferView": 0,
      "byteOffset": 9312,
      "componentType": 5125,
      "count": 96,
      "max": [
        63
      ],
      "min": [
        0
      ],
      "type": "SCALAR"
    },
    {
      "bufferView": 1,
      "byteOffset": 40272,
      "componentType": 5126,
      "count": 240,
      "max": [
        0.95105999708175659,
        1,
        1
      ],
      "min": [
        -0.95105999708175659,
        -1,
        -1
      ],
      "type": "VEC3"
    },
    {
      "bufferView": 1,
      "byteOffset": 43152,
      "componentType": 5126,
      "count": 240,
      "max": [
        0.99207723140716553,
        0.94352102279663086,
        0.94352495670318604
      ],
      "min": [
        -0.99207723140716553,
        -0.94352102279663086,
        -0.94352495670318604
      ],
      "type": "VEC3"
    },
    {
      "bufferView": 0,
      "byteOffset": 9696,
      "componentType": 5125,
      "count": 240,
      "max": [
        239
      ],
      "min": [
        0
      ],
      "type": "SCALAR"
    },
    {
      "bufferView": 1,
      "byteOffset": 46032,
      "componentType": 5126,
      "count": 240,
      "max": [
        0.95105999708175659,
        1,
        1
      ],
      "min": [
        -0.95105999708175659,
        -1,
        -1
      ],
      "type": "VEC3"
    },
    {
      "bufferView": 1,
      "byteOffset": 48912,
      "componentType": 5126,
      "count": 240,
      "max": [
        0.99207723140716553,
        0.94352102279663086,
        0.94352495670318604
      ],
      "min": [
        -0.99207723140716553,
        -0.94352102279663086,
        -0.94352495670318604
      ],
      "type": "VEC3"
    },
    {
      "bufferView": 0,
      "byteOffset": 10656,
      "componentType": 5125,
      "count": 240,
      "max": [
        239
      ],
      "min": [
        0
      ],
      "type": "SCALAR"
    }
  ],
  "asset": {
    "extras": {
      "author": "Zafflex (https://sketchfab.com/Zafflex)",
      "license": "CC-BY-4.0 (http://creativecommons.org/licenses/by/4.0/)",
      "source": "https://sketchfab.com/models/8061ded0b9fa4133bf02582d27caf2a6",
      "title": "Low-poly Black Bear"
    },
    "generator": "Sketchfab-4.4.0",
    "version": "2.0"
  },
  "bufferViews": [
    {
      "buffer": 0,
      "byteLength": 11616,
      "byteOffset": 0,
      "name": "floatBufferViews",
      "target": 34963
    },
    {
      "buffer": 0,
      "byteLength": 51792,
      "byteOffset": 11616,
      "byteStride": 12,
      "name": "floatBufferViews",
      "target": 34962
    }
  ],
  "buffers": [
    {
      "byteLength": 63408,
      "uri": "scene.bin"
    }
  ],
  "materials": [
    {
      "doubleSided": true,
      "emissiveFactor": [
        0,
        0,
        0
      ],
      "name": "Black_bear",
      "pbrMetallicRoughness": {
        "baseColorFactor": [
          0.037387080500000003,
          0.034049131000000003,
          0.037176530800000003,
          1
        ],
        "metallicFactor": 0,
        "roughnessFactor": 0.59999999999999998
      }
    },
    {
      "doubleSided": true,
      "emissiveFactor": [
        0,
        0,
        0
      ],
      "name": "Black_bear_Nose",
      "pbrMetallicRoughness": {
        "baseColorFactor": [
          0.0203788523,
          0.0203788523,
          0.0203788523,
          1
        ],
        "metallicFactor": 0,
        "roughnessFactor": 0.59999999999999998
      }
    },
    {
      "doubleSided": true,
      "emissiveFactor": [
        0,
        0,
        0
      ],
      "name": "Black_bear_front-face",
      "pbrMetallicRoughness": {
        "baseColorFactor": [
          0.80000007149999997,
          0.50072115660000005,
          0.26748427749999998,
          1
        ],
        "metallicFactor": 0,
        "roughnessFactor": 0.59999999999999998
      }
    },
    {
      "doubleSided": true,
      "emissiveFactor": [
        0,
        0,
        0
      ],
      "name": "material",
      "pbrMetallicRoughness": {
        "baseColorFactor": [
          0,
          0,
          0,
          1
        ],
        "metallicFactor": 0,
        "roughnessFactor": 0.59999999999999998
      }
    },
    {
      "doubleSided": true,
      "emissiveFactor": [
        0,
        0,
        0
      ],
      "name": "eye.001",
      "pbrMetallicRoughness": {
        "baseColorFactor": [
          0,
          0,
          0,
          1
        ],
        "metallicFactor": 0,
        "roughnessFactor": 0.59999999999999998
      }
    }
  ],
  "meshes": [
    {
      "name": "Plane_0",
      "primitives": [
        {
          "attributes": {
            "NORMAL": 1,
            "POSITION": 0
          },
          "indices": 2,
          "material": 0,
          "mode": 4
        }
      ]
    },
    {
      "name": "Plane_1",
      "primitives": [
        {
          "attributes": {
            "NORMAL": 4,
            "POSITION": 3
          },
          "indices": 5,
          "material": 1,
          "mode": 4
        }
      ]
    },
    {
      "name": "Plane_2",
      "primitives": [
        {
          "attributes": {
            "NORMAL": 7,
            "POSITION": 6
          },
          "indices": 8,
          "material": 2,
          "mode": 4
        }
      ]
    },
    {
      "name": "Icosphere_0",
      "primitives": [
        {
          "attributes": {
            "NORMAL": 10,
            "POSITION": 9
          },
          "indices": 11,
          "material": 3,
          "mode": 4
        }
      ]
    },
    {
      "name": "Icosphere.001_0",
      "primitives": [
        {
          "attributes": {
            "NORMAL": 13,
            "POSITION": 12
          },
          "indices": 14,
          "material": 4,
          "mode": 4
        }
      ]
    }
  ],
  "nodes": [
    {
      "children": [
        1
      ],
      "name": "RootNode (gltf orientation matrix)",
      "rotation": [
        -0.70710678118654746,
        -0,
        -0,
        0.70710678118654757
      ]
    },
    {
      "children": [
        2
      ],
      "name": "RootNode (model correction matrix)"
    },
    {
      "children": [
        3
      ],
      "name": "Root"
    },
    {
      "children": [
        4,
        5,
        6,
        7,
        9
      ],
      "matrix": [
        0,
        0,
        -0.21536000000000002,
        0,
        -0.058150000000000014,
        -0,
        -0,
        0,
        -0,
        0.21536000000000002,
        -0,
        0,
        -0,
        0,
        0,
        1
      ],
      "name": "Plane"
    },
    {
      "mesh": 0,
      "name": "Plane_0"
    },
    {
      "mesh": 1,
      "name": "Plane_1"
    },
    {
      "mesh": 2,
      "name": "Plane_2"
    },
    {
      "children": [
        8
      ],
      "matrix": [
        0,
        -0.28755000000000003,
        -0,
        0,
        0,
        -0,
        0.077640000000000015,
        0,
        -0.077640000000000015,
        -0,
        -0,
        0,
        -0.63582000000000016,
        -11.340530000000001,
        0.37147000000000008,
        1
      ],
      "name": "Icosphere"
    },
    {
      "mesh": 3,
      "name": "Icosphere_0"
    },
    {
      "children": [
        10
      ],
      "matrix": [
        0,
        -0.28755000000000003,
        -0,
        0,
        0,
        -0,
        0.077640000000000015,
        0,
        -0.077640000000000015,
        -0,
        -0,
        0,
        -0.63582000000000016,
        -11.340530000000001,
        -0.37148000000000009,
        1
      ],
      "name": "Icosphere.001"
    },
    {
      "mesh": 4,
      "name": "Icosphere.001_0"
    }
  ],
  "scene": 0,
  "scenes": [
    {
      "name": "OSG_Scene",
      "nodes": [
        0
      ]
    }
  ]
}

